<?xml version="1.0" standalone="no"?>
<!DOCTYPE svg PUBLIC "-//W3C//DTD SVG 20010904//EN"
 "http://www.w3.org/TR/2001/REC-SVG-20010904/DTD/svg10.dtd">
<svg version="1.0" xmlns="http://www.w3.org/2000/svg"
 width="1080.000000pt" height="1080.000000pt" viewBox="0 0 1080.000000 1080.000000"
 preserveAspectRatio="xMidYMid meet">
<metadata>
Created by potrace 1.14, written by Peter Selinger 2001-2017
</metadata>
<g transform="translate(0.000000,1080.000000) scale(0.100000,-0.100000)"
fill="#000000" stroke="none">
<path d="M5098 10795 c-1 -1 -46 -6 -98 -9 -129 -9 -347 -34 -448 -52 -45 -8
-99 -17 -120 -20 -264 -41 -723 -172 -1022 -292 -250 -100 -542 -243 -750
-367 -107 -64 -354 -224 -410 -267 -255 -194 -284 -217 -444 -357 -80 -69
-320 -306 -391 -385 -259 -286 -527 -650 -685 -931 -89 -158 -122 -220 -195
-370 -234 -482 -416 -1073 -479 -1560 -44 -335 -51 -439 -51 -780 0 -321 6
-420 36 -670 54 -443 161 -870 322 -1285 82 -211 110 -274 212 -475 176 -349
394 -687 632 -980 30 -37 188 -220 208 -241 360 -380 637 -615 1022 -869 313
-206 646 -379 993 -516 142 -56 437 -154 525 -174 11 -2 63 -16 115 -30 87
-23 335 -76 420 -89 363 -58 527 -71 915 -71 238 0 462 8 524 20 9 1 48 6 86
10 125 12 267 34 430 67 55 10 111 22 125 24 223 44 733 205 925 294 11 5 76
34 145 65 137 62 348 171 480 248 465 272 873 600 1250 1007 90 97 120 131
208 236 131 156 357 480 467 669 32 55 68 116 80 135 47 75 226 453 285 599
178 445 301 929 355 1395 26 229 30 314 30 621 0 337 -4 412 -40 715 -6 46
-22 155 -30 200 -3 14 -7 39 -10 55 -38 212 -111 502 -185 725 -224 680 -596
1332 -1065 1864 -103 117 -85 98 -201 217 -181 185 -327 318 -519 469 -589
466 -1287 811 -2010 993 -161 41 -335 78 -435 93 -19 3 -48 8 -65 10 -79 13
-238 33 -310 39 -44 4 -93 9 -110 12 -34 5 -711 13 -717 8z"/>
</g>
</svg>
