<svg id="visual" viewBox="0 0 900 450" width="900" height="450" xmlns="http://www.w3.org/2000/svg" xmlns:xlink="http://www.w3.org/1999/xlink" version="1.1"><rect x="0" y="0" width="900" height="450" fill="#22313f"></rect><defs><linearGradient id="grad1_0" x1="50%" y1="0%" x2="100%" y2="100%"><stop offset="10%" stop-color="#37c4ff" stop-opacity="1"></stop><stop offset="90%" stop-color="#37c4ff" stop-opacity="1"></stop></linearGradient></defs><defs><linearGradient id="grad1_1" x1="50%" y1="0%" x2="100%" y2="100%"><stop offset="10%" stop-color="#37c4ff" stop-opacity="1"></stop><stop offset="90%" stop-color="#3ca9dd" stop-opacity="1"></stop></linearGradient></defs><defs><linearGradient id="grad1_2" x1="50%" y1="0%" x2="100%" y2="100%"><stop offset="10%" stop-color="#3c8fbb" stop-opacity="1"></stop><stop offset="90%" stop-color="#3ca9dd" stop-opacity="1"></stop></linearGradient></defs><defs><linearGradient id="grad1_3" x1="50%" y1="0%" x2="100%" y2="100%"><stop offset="10%" stop-color="#3c8fbb" stop-opacity="1"></stop><stop offset="90%" stop-color="#39769b" stop-opacity="1"></stop></linearGradient></defs><defs><linearGradient id="grad1_4" x1="50%" y1="0%" x2="100%" y2="100%"><stop offset="10%" stop-color="#335d7b" stop-opacity="1"></stop><stop offset="90%" stop-color="#39769b" stop-opacity="1"></stop></linearGradient></defs><defs><linearGradient id="grad1_5" x1="50%" y1="0%" x2="100%" y2="100%"><stop offset="10%" stop-color="#335d7b" stop-opacity="1"></stop><stop offset="90%" stop-color="#2c475c" stop-opacity="1"></stop></linearGradient></defs><defs><linearGradient id="grad1_6" x1="50%" y1="0%" x2="100%" y2="100%"><stop offset="10%" stop-color="#22313f" stop-opacity="1"></stop><stop offset="90%" stop-color="#2c475c" stop-opacity="1"></stop></linearGradient></defs><defs><linearGradient id="grad2_0" x1="0%" y1="0%" x2="50%" y2="100%"><stop offset="10%" stop-color="#37c4ff" stop-opacity="1"></stop><stop offset="90%" stop-color="#37c4ff" stop-opacity="1"></stop></linearGradient></defs><defs><linearGradient id="grad2_1" x1="0%" y1="0%" x2="50%" y2="100%"><stop offset="10%" stop-color="#3ca9dd" stop-opacity="1"></stop><stop offset="90%" stop-color="#37c4ff" stop-opacity="1"></stop></linearGradient></defs><defs><linearGradient id="grad2_2" x1="0%" y1="0%" x2="50%" y2="100%"><stop offset="10%" stop-color="#3ca9dd" stop-opacity="1"></stop><stop offset="90%" stop-color="#3c8fbb" stop-opacity="1"></stop></linearGradient></defs><defs><linearGradient id="grad2_3" x1="0%" y1="0%" x2="50%" y2="100%"><stop offset="10%" stop-color="#39769b" stop-opacity="1"></stop><stop offset="90%" stop-color="#3c8fbb" stop-opacity="1"></stop></linearGradient></defs><defs><linearGradient id="grad2_4" x1="0%" y1="0%" x2="50%" y2="100%"><stop offset="10%" stop-color="#39769b" stop-opacity="1"></stop><stop offset="90%" stop-color="#335d7b" stop-opacity="1"></stop></linearGradient></defs><defs><linearGradient id="grad2_5" x1="0%" y1="0%" x2="50%" y2="100%"><stop offset="10%" stop-color="#2c475c" stop-opacity="1"></stop><stop offset="90%" stop-color="#335d7b" stop-opacity="1"></stop></linearGradient></defs><defs><linearGradient id="grad2_6" x1="0%" y1="0%" x2="50%" y2="100%"><stop offset="10%" stop-color="#2c475c" stop-opacity="1"></stop><stop offset="90%" stop-color="#22313f" stop-opacity="1"></stop></linearGradient></defs><g transform="translate(900, 0)"><path d="M0 315C-63.6 311.7 -127.3 308.4 -157.5 272.8C-187.7 237.2 -184.6 169.3 -205.2 118.5C-225.9 67.7 -270.5 33.8 -315 0L0 0Z" fill="#273c4d"></path><path d="M0 270C-54.5 267.2 -109.1 264.3 -135 233.8C-160.9 203.3 -158.2 145.2 -175.9 101.6C-193.7 58 -231.8 29 -270 0L0 0Z" fill="#30526b"></path><path d="M0 225C-45.5 222.6 -90.9 220.3 -112.5 194.9C-134.1 169.4 -131.8 121 -146.6 84.6C-161.4 48.3 -193.2 24.2 -225 0L0 0Z" fill="#37698b"></path><path d="M0 180C-36.4 178.1 -72.7 176.2 -90 155.9C-107.3 135.5 -105.5 96.8 -117.3 67.7C-129.1 38.7 -154.6 19.3 -180 0L0 0Z" fill="#3b82ab"></path><path d="M0 135C-27.3 133.6 -54.5 132.2 -67.5 116.9C-80.5 101.7 -79.1 72.6 -88 50.8C-96.8 29 -115.9 14.5 -135 0L0 0Z" fill="#3d9ccc"></path><path d="M0 90C-18.2 89.1 -36.4 88.1 -45 77.9C-53.6 67.8 -52.7 48.4 -58.6 33.9C-64.6 19.3 -77.3 9.7 -90 0L0 0Z" fill="#3ab6ee"></path><path d="M0 45C-9.1 44.5 -18.2 44.1 -22.5 39C-26.8 33.9 -26.4 24.2 -29.3 16.9C-32.3 9.7 -38.6 4.8 -45 0L0 0Z" fill="#37c4ff"></path></g><g transform="translate(0, 450)"><path d="M0 -315C41.6 -283.9 83.1 -252.7 133 -230.4C182.9 -208 241.1 -194.4 272.8 -157.5C304.5 -120.6 309.8 -60.3 315 0L0 0Z" fill="#273c4d"></path><path d="M0 -270C35.6 -243.3 71.2 -216.6 114 -197.5C156.8 -178.3 206.6 -166.7 233.8 -135C261 -103.3 265.5 -51.7 270 0L0 0Z" fill="#30526b"></path><path d="M0 -225C29.7 -202.8 59.4 -180.5 95 -164.5C130.6 -148.6 172.2 -138.9 194.9 -112.5C217.5 -86.1 221.3 -43.1 225 0L0 0Z" fill="#37698b"></path><path d="M0 -180C23.7 -162.2 47.5 -144.4 76 -131.6C104.5 -118.9 137.8 -111.1 155.9 -90C174 -68.9 177 -34.4 180 0L0 0Z" fill="#3b82ab"></path><path d="M0 -135C17.8 -121.7 35.6 -108.3 57 -98.7C78.4 -89.1 103.3 -83.3 116.9 -67.5C130.5 -51.7 132.8 -25.8 135 0L0 0Z" fill="#3d9ccc"></path><path d="M0 -90C11.9 -81.1 23.7 -72.2 38 -65.8C52.3 -59.4 68.9 -55.6 77.9 -45C87 -34.4 88.5 -17.2 90 0L0 0Z" fill="#3ab6ee"></path><path d="M0 -45C5.9 -40.6 11.9 -36.1 19 -32.9C26.1 -29.7 34.4 -27.8 39 -22.5C43.5 -17.2 44.3 -8.6 45 0L0 0Z" fill="#37c4ff"></path></g></svg>