<svg id="visual" viewBox="0 0 900 450" width="900" height="450" xmlns="http://www.w3.org/2000/svg" xmlns:xlink="http://www.w3.org/1999/xlink" version="1.1"><path d="M0 110L18.8 118.5C37.7 127 75.3 144 112.8 154.5C150.3 165 187.7 169 225.2 160.7C262.7 152.3 300.3 131.7 337.8 127.2C375.3 122.7 412.7 134.3 450.2 148C487.7 161.7 525.3 177.3 562.8 171.7C600.3 166 637.7 139 675.2 138C712.7 137 750.3 162 787.8 166.3C825.3 170.7 862.7 154.3 881.3 146.2L900 138L900 451L881.3 451C862.7 451 825.3 451 787.8 451C750.3 451 712.7 451 675.2 451C637.7 451 600.3 451 562.8 451C525.3 451 487.7 451 450.2 451C412.7 451 375.3 451 337.8 451C300.3 451 262.7 451 225.2 451C187.7 451 150.3 451 112.8 451C75.3 451 37.7 451 18.8 451L0 451Z" fill="#4771a2"></path><path d="M0 217L18.8 211C37.7 205 75.3 193 112.8 191.2C150.3 189.3 187.7 197.7 225.2 200.5C262.7 203.3 300.3 200.7 337.8 194C375.3 187.3 412.7 176.7 450.2 181C487.7 185.3 525.3 204.7 562.8 215.2C600.3 225.7 637.7 227.3 675.2 225C712.7 222.7 750.3 216.3 787.8 206.3C825.3 196.3 862.7 182.7 881.3 175.8L900 169L900 451L881.3 451C862.7 451 825.3 451 787.8 451C750.3 451 712.7 451 675.2 451C637.7 451 600.3 451 562.8 451C525.3 451 487.7 451 450.2 451C412.7 451 375.3 451 337.8 451C300.3 451 262.7 451 225.2 451C187.7 451 150.3 451 112.8 451C75.3 451 37.7 451 18.8 451L0 451Z" fill="#3c6088"></path><path d="M0 265L18.8 264.8C37.7 264.7 75.3 264.3 112.8 270.8C150.3 277.3 187.7 290.7 225.2 296.2C262.7 301.7 300.3 299.3 337.8 288C375.3 276.7 412.7 256.3 450.2 246.5C487.7 236.7 525.3 237.3 562.8 245C600.3 252.7 637.7 267.3 675.2 267.5C712.7 267.7 750.3 253.3 787.8 255.8C825.3 258.3 862.7 277.7 881.3 287.3L900 297L900 451L881.3 451C862.7 451 825.3 451 787.8 451C750.3 451 712.7 451 675.2 451C637.7 451 600.3 451 562.8 451C525.3 451 487.7 451 450.2 451C412.7 451 375.3 451 337.8 451C300.3 451 262.7 451 225.2 451C187.7 451 150.3 451 112.8 451C75.3 451 37.7 451 18.8 451L0 451Z" fill="#32506f"></path><path d="M0 343L18.8 342.7C37.7 342.3 75.3 341.7 112.8 343.5C150.3 345.3 187.7 349.7 225.2 350.3C262.7 351 300.3 348 337.8 339.5C375.3 331 412.7 317 450.2 316.3C487.7 315.7 525.3 328.3 562.8 329C600.3 329.7 637.7 318.3 675.2 313.7C712.7 309 750.3 311 787.8 308.3C825.3 305.7 862.7 298.3 881.3 294.7L900 291L900 451L881.3 451C862.7 451 825.3 451 787.8 451C750.3 451 712.7 451 675.2 451C637.7 451 600.3 451 562.8 451C525.3 451 487.7 451 450.2 451C412.7 451 375.3 451 337.8 451C300.3 451 262.7 451 225.2 451C187.7 451 150.3 451 112.8 451C75.3 451 37.7 451 18.8 451L0 451Z" fill="#2a4056"></path><path d="M0 399L18.8 399.2C37.7 399.3 75.3 399.7 112.8 399.2C150.3 398.7 187.7 397.3 225.2 395C262.7 392.7 300.3 389.3 337.8 382.5C375.3 375.7 412.7 365.3 450.2 358.5C487.7 351.7 525.3 348.3 562.8 348C600.3 347.7 637.7 350.3 675.2 351.5C712.7 352.7 750.3 352.3 787.8 357.2C825.3 362 862.7 372 881.3 377L900 382L900 451L881.3 451C862.7 451 825.3 451 787.8 451C750.3 451 712.7 451 675.2 451C637.7 451 600.3 451 562.8 451C525.3 451 487.7 451 450.2 451C412.7 451 375.3 451 337.8 451C300.3 451 262.7 451 225.2 451C187.7 451 150.3 451 112.8 451C75.3 451 37.7 451 18.8 451L0 451Z" fill="#22313f"></path></svg>